<mxfile host="app.diagrams.net" modified="2020-09-02T08:04:18.101Z" agent="5.0 (Windows NT 10.0; Win64; x64) AppleWebKit/537.36 (KHTML, like Gecko) Chrome/84.0.4147.135 Safari/537.36" etag="SQ6DB6u5jJgDRMrMataR" version="13.6.6" type="github">
  <diagram id="ORcNSxYSMZKgh4HLXKWs" name="Page-1">
    <mxGraphModel dx="1422" dy="802" grid="1" gridSize="10" guides="1" tooltips="1" connect="1" arrows="1" fold="1" page="1" pageScale="1" pageWidth="827" pageHeight="1169" math="0" shadow="0">
      <root>
        <mxCell id="0" />
        <mxCell id="1" parent="0" />
        <mxCell id="ABb_Co_BU7eJTltgGqI1-3" value="http" style="edgeStyle=orthogonalEdgeStyle;rounded=0;orthogonalLoop=1;jettySize=auto;html=1;entryX=0.5;entryY=0;entryDx=0;entryDy=0;" edge="1" parent="1" source="ABb_Co_BU7eJTltgGqI1-1" target="ABb_Co_BU7eJTltgGqI1-2">
          <mxGeometry relative="1" as="geometry" />
        </mxCell>
        <mxCell id="ABb_Co_BU7eJTltgGqI1-6" value="http" style="edgeStyle=orthogonalEdgeStyle;rounded=0;orthogonalLoop=1;jettySize=auto;html=1;entryX=0.5;entryY=0;entryDx=0;entryDy=0;" edge="1" parent="1" source="ABb_Co_BU7eJTltgGqI1-1" target="ABb_Co_BU7eJTltgGqI1-4">
          <mxGeometry relative="1" as="geometry" />
        </mxCell>
        <mxCell id="ABb_Co_BU7eJTltgGqI1-1" value="app" style="rounded=0;whiteSpace=wrap;html=1;" vertex="1" parent="1">
          <mxGeometry x="80" y="20" width="120" height="60" as="geometry" />
        </mxCell>
        <mxCell id="ABb_Co_BU7eJTltgGqI1-2" value="backend service" style="rounded=0;whiteSpace=wrap;html=1;" vertex="1" parent="1">
          <mxGeometry x="80" y="140" width="120" height="60" as="geometry" />
        </mxCell>
        <mxCell id="ABb_Co_BU7eJTltgGqI1-17" style="edgeStyle=orthogonalEdgeStyle;rounded=0;orthogonalLoop=1;jettySize=auto;html=1;entryX=0.5;entryY=0;entryDx=0;entryDy=0;" edge="1" parent="1" source="ABb_Co_BU7eJTltgGqI1-4" target="ABb_Co_BU7eJTltgGqI1-14">
          <mxGeometry relative="1" as="geometry" />
        </mxCell>
        <mxCell id="ABb_Co_BU7eJTltgGqI1-18" style="edgeStyle=orthogonalEdgeStyle;rounded=0;orthogonalLoop=1;jettySize=auto;html=1;" edge="1" parent="1" source="ABb_Co_BU7eJTltgGqI1-4" target="ABb_Co_BU7eJTltgGqI1-15">
          <mxGeometry relative="1" as="geometry" />
        </mxCell>
        <mxCell id="ABb_Co_BU7eJTltgGqI1-20" style="edgeStyle=orthogonalEdgeStyle;rounded=0;orthogonalLoop=1;jettySize=auto;html=1;" edge="1" parent="1" source="ABb_Co_BU7eJTltgGqI1-4" target="ABb_Co_BU7eJTltgGqI1-16">
          <mxGeometry relative="1" as="geometry" />
        </mxCell>
        <mxCell id="ABb_Co_BU7eJTltgGqI1-4" value="das_write_log" style="rounded=0;whiteSpace=wrap;html=1;" vertex="1" parent="1">
          <mxGeometry x="290" y="140" width="120" height="60" as="geometry" />
        </mxCell>
        <mxCell id="ABb_Co_BU7eJTltgGqI1-5" value="http" style="edgeStyle=orthogonalEdgeStyle;rounded=0;orthogonalLoop=1;jettySize=auto;html=1;entryX=0;entryY=0.5;entryDx=0;entryDy=0;" edge="1" parent="1" source="ABb_Co_BU7eJTltgGqI1-2" target="ABb_Co_BU7eJTltgGqI1-4">
          <mxGeometry relative="1" as="geometry" />
        </mxCell>
        <mxCell id="ABb_Co_BU7eJTltgGqI1-14" value="event_log_1" style="rounded=0;whiteSpace=wrap;html=1;" vertex="1" parent="1">
          <mxGeometry x="170" y="280" width="120" height="60" as="geometry" />
        </mxCell>
        <mxCell id="ABb_Co_BU7eJTltgGqI1-15" value="event_log_2" style="rounded=0;whiteSpace=wrap;html=1;" vertex="1" parent="1">
          <mxGeometry x="290" y="280" width="120" height="60" as="geometry" />
        </mxCell>
        <mxCell id="ABb_Co_BU7eJTltgGqI1-16" value="event_log_xxx" style="rounded=0;whiteSpace=wrap;html=1;" vertex="1" parent="1">
          <mxGeometry x="410" y="280" width="120" height="60" as="geometry" />
        </mxCell>
        <mxCell id="ABb_Co_BU7eJTltgGqI1-31" style="edgeStyle=orthogonalEdgeStyle;rounded=0;orthogonalLoop=1;jettySize=auto;html=1;" edge="1" parent="1" source="ABb_Co_BU7eJTltgGqI1-21" target="ABb_Co_BU7eJTltgGqI1-30">
          <mxGeometry relative="1" as="geometry" />
        </mxCell>
        <mxCell id="ABb_Co_BU7eJTltgGqI1-21" value="das_data_store" style="rounded=0;whiteSpace=wrap;html=1;" vertex="1" parent="1">
          <mxGeometry x="290" y="530" width="120" height="60" as="geometry" />
        </mxCell>
        <mxCell id="ABb_Co_BU7eJTltgGqI1-30" value="clickhouse" style="shape=cylinder2;whiteSpace=wrap;html=1;boundedLbl=1;backgroundOutline=1;size=15;" vertex="1" parent="1">
          <mxGeometry x="320" y="630" width="60" height="80" as="geometry" />
        </mxCell>
        <mxCell id="ABb_Co_BU7eJTltgGqI1-45" value="datax" style="edgeStyle=orthogonalEdgeStyle;rounded=0;orthogonalLoop=1;jettySize=auto;html=1;entryX=0.5;entryY=0;entryDx=0;entryDy=0;" edge="1" parent="1" source="ABb_Co_BU7eJTltgGqI1-32" target="ABb_Co_BU7eJTltgGqI1-43">
          <mxGeometry relative="1" as="geometry" />
        </mxCell>
        <mxCell id="ABb_Co_BU7eJTltgGqI1-32" value="mysql" style="shape=cylinder2;whiteSpace=wrap;html=1;boundedLbl=1;backgroundOutline=1;size=15;" vertex="1" parent="1">
          <mxGeometry x="710" y="130" width="60" height="80" as="geometry" />
        </mxCell>
        <mxCell id="ABb_Co_BU7eJTltgGqI1-39" value="http" style="edgeStyle=orthogonalEdgeStyle;rounded=0;orthogonalLoop=1;jettySize=auto;html=1;entryX=1;entryY=0.5;entryDx=0;entryDy=0;" edge="1" parent="1" source="ABb_Co_BU7eJTltgGqI1-35" target="ABb_Co_BU7eJTltgGqI1-4">
          <mxGeometry relative="1" as="geometry" />
        </mxCell>
        <mxCell id="ABb_Co_BU7eJTltgGqI1-35" value="canal" style="shape=cylinder2;whiteSpace=wrap;html=1;boundedLbl=1;backgroundOutline=1;size=15;" vertex="1" parent="1">
          <mxGeometry x="560" y="130" width="60" height="80" as="geometry" />
        </mxCell>
        <mxCell id="ABb_Co_BU7eJTltgGqI1-37" value="binlog" style="edgeStyle=orthogonalEdgeStyle;rounded=0;orthogonalLoop=1;jettySize=auto;html=1;entryX=1.033;entryY=0.513;entryDx=0;entryDy=0;entryPerimeter=0;" edge="1" parent="1" source="ABb_Co_BU7eJTltgGqI1-32" target="ABb_Co_BU7eJTltgGqI1-35">
          <mxGeometry relative="1" as="geometry">
            <mxPoint x="700" y="120" as="sourcePoint" />
            <mxPoint x="700" y="280" as="targetPoint" />
          </mxGeometry>
        </mxCell>
        <mxCell id="ABb_Co_BU7eJTltgGqI1-46" style="edgeStyle=orthogonalEdgeStyle;rounded=0;orthogonalLoop=1;jettySize=auto;html=1;entryX=1;entryY=0.538;entryDx=0;entryDy=0;entryPerimeter=0;" edge="1" parent="1" source="ABb_Co_BU7eJTltgGqI1-43" target="ABb_Co_BU7eJTltgGqI1-30">
          <mxGeometry relative="1" as="geometry">
            <Array as="points">
              <mxPoint x="740" y="673" />
            </Array>
          </mxGeometry>
        </mxCell>
        <mxCell id="ABb_Co_BU7eJTltgGqI1-43" value="das_job" style="rounded=0;whiteSpace=wrap;html=1;" vertex="1" parent="1">
          <mxGeometry x="680" y="280" width="120" height="60" as="geometry" />
        </mxCell>
        <mxCell id="ABb_Co_BU7eJTltgGqI1-49" value="" style="edgeStyle=orthogonalEdgeStyle;rounded=0;orthogonalLoop=1;jettySize=auto;html=1;entryX=0.5;entryY=1;entryDx=0;entryDy=0;" edge="1" parent="1" source="ABb_Co_BU7eJTltgGqI1-47" target="ABb_Co_BU7eJTltgGqI1-14">
          <mxGeometry relative="1" as="geometry" />
        </mxCell>
        <mxCell id="ABb_Co_BU7eJTltgGqI1-50" style="edgeStyle=orthogonalEdgeStyle;rounded=0;orthogonalLoop=1;jettySize=auto;html=1;entryX=0.5;entryY=1;entryDx=0;entryDy=0;" edge="1" parent="1" source="ABb_Co_BU7eJTltgGqI1-47" target="ABb_Co_BU7eJTltgGqI1-16">
          <mxGeometry relative="1" as="geometry" />
        </mxCell>
        <mxCell id="ABb_Co_BU7eJTltgGqI1-51" value="filebeat" style="edgeStyle=orthogonalEdgeStyle;rounded=0;orthogonalLoop=1;jettySize=auto;html=1;entryX=0.5;entryY=1;entryDx=0;entryDy=0;" edge="1" parent="1" source="ABb_Co_BU7eJTltgGqI1-47" target="ABb_Co_BU7eJTltgGqI1-15">
          <mxGeometry relative="1" as="geometry" />
        </mxCell>
        <mxCell id="ABb_Co_BU7eJTltgGqI1-52" style="edgeStyle=orthogonalEdgeStyle;rounded=0;orthogonalLoop=1;jettySize=auto;html=1;entryX=0.5;entryY=0;entryDx=0;entryDy=0;" edge="1" parent="1" source="ABb_Co_BU7eJTltgGqI1-47" target="ABb_Co_BU7eJTltgGqI1-21">
          <mxGeometry relative="1" as="geometry" />
        </mxCell>
        <mxCell id="ABb_Co_BU7eJTltgGqI1-47" value="kafka" style="rounded=0;whiteSpace=wrap;html=1;" vertex="1" parent="1">
          <mxGeometry x="290" y="430" width="120" height="60" as="geometry" />
        </mxCell>
      </root>
    </mxGraphModel>
  </diagram>
</mxfile>
